<svg width="160" height="160" version="1.1" xmlns="http://www.w3.org/2000/svg" desc="Created with imagetracer.js version 0.2.1" ><path fill="rgb(219,68,26)" stroke="rgb(219,68,26)" stroke-width="1" opacity="1" d="M 70 10 L 80 10 L 80 20 L 70 20 L 70 10 Z " /><path fill="rgb(219,68,26)" stroke="rgb(219,68,26)" stroke-width="1" opacity="1" d="M 90 10 L 100 10 L 100 20 L 110 20 L 110 30 L 120 30 L 120 40 L 130 40 L 130 50 L 120 50 L 120 60 L 130 60 L 130 70 L 120 70 L 120 60 L 110 60 L 110 50 L 100 50 L 100 40 L 110 40 L 110 30 L 100 30 L 100 20 L 90 20 L 90 10 Z M 110 40 L 110 50 L 120 50 L 120 40 L 110 40 Z " /><path fill="rgb(219,68,26)" stroke="rgb(219,68,26)" stroke-width="1" opacity="1" d="M 50 20 L 60 20 L 60 30 L 70 30 L 70 40 L 60 40 L 60 30 L 50 30 L 50 20 Z " /><path fill="rgb(219,68,26)" stroke="rgb(219,68,26)" stroke-width="1" opacity="1" d="M 30 30 L 40 30 L 40 40 L 50 40 L 50 50 L 60 50 L 60 60 L 70 60 L 70 70 L 80 70 L 80 80 L 90 80 L 90 90 L 80 90 L 80 80 L 70 80 L 70 70 L 60 70 L 60 90 L 50 90 L 50 70 L 60 70 L 60 60 L 50 60 L 50 50 L 40 50 L 40 70 L 30 70 L 30 50 L 40 50 L 40 40 L 30 40 L 30 30 Z " /><path fill="rgb(219,68,26)" stroke="rgb(219,68,26)" stroke-width="1" opacity="1" d="M 90 60 L 100 60 L 100 70 L 110 70 L 110 80 L 100 80 L 100 70 L 90 70 L 90 60 Z " /><path fill="rgb(0,0,0)" stroke="rgb(0,0,0)" stroke-width="1" opacity="0" d="M 0 0 L 69.5 0 L 70 0.5 L 70 10 L 50 10 L 50 20 L 30 20 L 30 30 L 20 30 L 20 50 L 10.5 50 L 10 50.5 L 10 110 L 20 110 L 20 120 L 30 120 L 30 130 L 40 130 L 40 140 L 50 140 L 50 150 L 100 150 L 100 130 L 140 130 L 140 110 L 150 110 L 150 50 L 140 50 L 140 40 L 130 40 L 130 30 L 120 30 L 120 20 L 110 20 L 110 10 L 100 10 L 100 0 L 160 0 L 160 160 L 0 160 L 0 0 Z " /><path fill="rgb(40,29,10)" stroke="rgb(40,29,10)" stroke-width="1" opacity="1" d="M 70 0 L 100 0 L 100 10 L 110 10 L 110 20 L 120 20 L 120 30 L 130 30 L 130 40 L 140 40 L 140 60 L 120 60 L 120 70 L 100 70 L 100 80 L 80 80 L 80 90 L 70 90 L 70 80 L 60 80 L 60 70 L 50 70 L 50 60 L 40 60 L 40 50 L 30 50 L 30 60 L 20 60 L 20 30 L 30 30 L 30 20 L 50 20 L 50 10 L 70 10 L 70 0 Z M 70 10 L 70 20 L 50 20 L 50 30 L 30 30 L 30 40 L 40 40 L 40 50 L 50 50 L 50 60 L 60 60 L 60 50 L 70 50 L 70 60 L 60 60 L 60 70 L 70 70 L 70 80 L 80 80 L 80 70 L 100 70 L 100 60 L 120 60 L 120 50 L 130 50 L 130 40 L 120 40 L 120 30 L 110 30 L 110 20 L 100 20 L 100 10 L 70 10 Z " /><path fill="rgb(40,29,10)" stroke="rgb(40,29,10)" stroke-width="1" opacity="1" d="M 60 140 L 70 140 L 70 150 L 60 150 L 60 140 Z " /><path fill="rgb(157,161,169)" stroke="rgb(157,161,169)" stroke-width="1" opacity="1" d="M 20 70 L 30 70 L 30 80 L 40 80 L 40 90 L 50 90 L 50 100 L 60 100 L 60 110 L 50 110 L 50 120 L 60 120 L 60 130 L 50 130 L 50 120 L 40 120 L 40 110 L 30 110 L 30 100 L 20 100 L 20 90 L 30 90 L 30 80 L 20 80 L 20 70 Z M 30 90 L 30 100 L 40 100 L 40 90 L 30 90 Z M 40 100 L 40 110 L 50 110 L 50 100 L 40 100 Z " /><path fill="rgb(145,45,17)" stroke="rgb(145,45,17)" stroke-width="1" opacity="1" d="M 80 10 L 90 10 L 90 20 L 100 20 L 100 30 L 110 30 L 110 40 L 120 40 L 120 50 L 110 50 L 110 40 L 100 40 L 100 30 L 90 30 L 90 20 L 80 20 L 80 10 Z " /><path fill="rgb(145,45,17)" stroke="rgb(145,45,17)" stroke-width="1" opacity="1" d="M 60 20 L 70 20 L 70 30 L 80 30 L 80 40 L 90 40 L 90 50 L 100 50 L 100 60 L 90 60 L 90 50 L 80 50 L 80 40 L 70 40 L 70 30 L 60 30 L 60 20 Z " /><path fill="rgb(145,45,17)" stroke="rgb(145,45,17)" stroke-width="1" opacity="1" d="M 40 30 L 50 30 L 50 40 L 60 40 L 60 50 L 50 50 L 50 40 L 40 40 L 40 30 Z " /><path fill="rgb(145,45,17)" stroke="rgb(145,45,17)" stroke-width="1" opacity="1" d="M 40 60 L 50 60 L 50 80 L 40 80 L 40 60 Z " /><path fill="rgb(145,45,17)" stroke="rgb(145,45,17)" stroke-width="1" opacity="1" d="M 70 60 L 80 60 L 80 70 L 70 70 L 70 60 Z " /><path fill="rgb(145,45,17)" stroke="rgb(145,45,17)" stroke-width="1" opacity="1" d="M 60 80 L 70 80 L 70 100 L 60 100 L 60 80 Z " /><path fill="rgb(128,131,137)" stroke="rgb(128,131,137)" stroke-width="1" opacity="1" d="M 130 70 L 140 70 L 140 80 L 130 80 L 130 90 L 140 90 L 140 100 L 130 100 L 130 110 L 120 110 L 120 120 L 110 120 L 110 110 L 100 110 L 100 120 L 90 120 L 90 130 L 80 130 L 80 140 L 70 140 L 70 130 L 80 130 L 80 120 L 70 120 L 70 110 L 80 110 L 80 100 L 90 100 L 90 90 L 100 90 L 100 100 L 110 100 L 110 90 L 120 90 L 120 80 L 130 80 L 130 70 Z M 120 90 L 120 100 L 130 100 L 130 90 L 120 90 Z M 90 100 L 90 110 L 100 110 L 100 100 L 90 100 Z M 110 100 L 110 110 L 120 110 L 120 100 L 110 100 Z M 80 110 L 80 120 L 90 120 L 90 110 L 80 110 Z " /><path fill="rgb(128,131,137)" stroke="rgb(128,131,137)" stroke-width="1" opacity="1" d="M 20 80 L 30 80 L 30 90 L 40 90 L 40 100 L 50 100 L 50 110 L 60 110 L 60 120 L 50 120 L 50 130 L 60 130 L 60 140 L 50 140 L 50 130 L 40 130 L 40 120 L 30 120 L 30 110 L 20 110 L 20 100 L 30 100 L 30 90 L 20 90 L 20 80 Z M 30 100 L 30 110 L 40 110 L 40 100 L 30 100 Z M 40 110 L 40 120 L 50 120 L 50 110 L 40 110 Z " /><path fill="rgb(180,105,84)" stroke="rgb(180,105,84)" stroke-width="1" opacity="1" d="M 70 20 L 80 20 L 80 30 L 90 30 L 90 40 L 80 40 L 80 30 L 70 30 L 70 20 Z " /><path fill="rgb(180,105,84)" stroke="rgb(180,105,84)" stroke-width="1" opacity="1" d="M 50 30 L 60 30 L 60 40 L 50 40 L 50 30 Z " /><path fill="rgb(180,105,84)" stroke="rgb(180,105,84)" stroke-width="1" opacity="1" d="M 100 50 L 110 50 L 110 60 L 100 60 L 100 50 Z " /><path fill="rgb(180,105,84)" stroke="rgb(180,105,84)" stroke-width="1" opacity="1" d="M 80 60 L 90 60 L 90 70 L 80 70 L 80 60 Z " /><path fill="rgb(43,44,45)" stroke="rgb(43,44,45)" stroke-width="1" opacity="1" d="M 10 60 L 19.5 60 L 20 60.5 L 20 110 L 30 110 L 30 120 L 40 120 L 40 130 L 50 130 L 50 140 L 60 140 L 60 150 L 50 150 L 50 140 L 40 140 L 40 130 L 30 130 L 30 120 L 20 120 L 20 110 L 10 110 L 10 60 Z " /><path fill="rgb(43,44,45)" stroke="rgb(43,44,45)" stroke-width="1" opacity="1" d="M 120 110 L 130 110 L 130 120 L 140 120 L 140 130 L 130 130 L 130 120 L 120 120 L 120 110 Z " /><path fill="rgb(43,44,45)" stroke="rgb(43,44,45)" stroke-width="1" opacity="1" d="M 80 130 L 90 130 L 90 140 L 100 140 L 100 150 L 90 150 L 90 140 L 80 140 L 80 130 Z " /><path fill="rgb(66,68,68)" stroke="rgb(66,68,68)" stroke-width="1" opacity="1" d="M 60 110 L 70 110 L 70 140 L 60 140 L 60 110 Z " /><path fill="rgb(107,110,114)" stroke="rgb(107,110,114)" stroke-width="1" opacity="1" d="M 110 80 L 120 80 L 120 90 L 130 90 L 130 80 L 140 80 L 140 90 L 130 90 L 130 100 L 140 100 L 140 110 L 130 110 L 130 100 L 120 100 L 120 110 L 110 110 L 110 120 L 100 120 L 100 130 L 90 130 L 90 120 L 80 120 L 80 130 L 70 130 L 70 120 L 80 120 L 80 110 L 70 110 L 70 100 L 80 100 L 80 110 L 90 110 L 90 100 L 100 100 L 100 90 L 110 90 L 110 80 Z M 110 90 L 110 100 L 120 100 L 120 90 L 110 90 Z M 100 100 L 100 110 L 110 110 L 110 100 L 100 100 Z M 90 110 L 90 120 L 100 120 L 100 110 L 90 110 Z " /><path fill="rgb(15,16,16)" stroke="rgb(15,16,16)" stroke-width="1" opacity="1" d="M 80 20 L 90 20 L 90 30 L 100 30 L 100 50 L 90 50 L 90 60 L 70 60 L 70 50 L 60 50 L 60 40 L 80 40 L 80 50 L 90 50 L 90 30 L 80 30 L 80 20 Z " /><path fill="rgb(15,16,16)" stroke="rgb(15,16,16)" stroke-width="1" opacity="1" d="M 10 50 L 20 50 L 20 60 L 30 60 L 30 70 L 40 70 L 40 80 L 50 80 L 50 90 L 60 90 L 60 100 L 70 100 L 70 90 L 90 90 L 90 80 L 110 80 L 110 70 L 130 70 L 130 60 L 140 60 L 140 50 L 150 50 L 150 110 L 140 110 L 140 120 L 130 120 L 130 130 L 100.5 130 L 100 130.5 L 100 140 L 90 140 L 90 150 L 70 150 L 70 140 L 90 140 L 90 130 L 100 130 L 100 120 L 129.5 120 L 130 119.5 L 130 110 L 140 110 L 140 70 L 130 70 L 130 80 L 110 80 L 110 90 L 90 90 L 90 100 L 70 100 L 70 110 L 60 110 L 60 100 L 50 100 L 50 90 L 40 90 L 40 80 L 30 80 L 30 70 L 20 70 L 20 60 L 10 60 L 10 50 Z " /></svg>