<svg width="300" height="300" version="1.1" xmlns="http://www.w3.org/2000/svg" desc="Created with imagetracer.js version 0.2.1" ><path fill="rgb(0,0,0)" stroke="rgb(0,0,0)" stroke-width="1" opacity="0" d="M 0 0 L 300 0 L 300 300 L 0 300 L 0 0 Z M 65 26 L 65 36 L 74 40 L 75 40 L 75 30 L 65 26 Z M 234 26 L 227 30 L 225 31 L 225 40 L 235 36 L 235 27 L 234 26 Z M 75 41 L 75 51 L 85 56 L 86 56 L 86 47 L 75 41 Z M 224 41 L 216 45 L 214 47 L 214 56 L 225 51 L 225 42 L 224 41 Z M 86 57 L 86 67 L 96 71 L 97 73 L 97 92 L 87 87 L 86 107 L 67 98 L 65 98 L 65 108 L 67 108 Q 68 111 65 111 L 65 120 L 74 116 L 75 117 L 75 126 L 77 125 L 80 125 L 86 128 L 86 149 L 87 150 L 86 152 L 86 172 L 80 175 L 76 174 L 75 177 L 69 180 L 67 180 L 65 181 L 65 192 L 68 191 L 75 194 L 76 198 L 86 193 L 87 213 L 97 208 L 98 228 L 117 218 L 118 219 L 118 227 L 129 222 L 129 242 L 138 238 L 139 238 L 139 227 L 150 222 L 170 232 L 171 232 L 171 223 L 161 217 L 170 212 L 171 212 L 171 202 L 192 212 L 193 212 L 193 203 L 203 207 L 204 187 L 224 197 L 225 199 L 225 208 L 235 213 L 235 180 L 233 181 L 225 177 L 225 157 L 223 156 Q 222 153 225 154 L 225 133 L 214 138 L 214 141 L 205 136 Q 202 137 203 135 L 211 130 Q 215 131 214 128 L 221 125 L 224 125 L 225 127 L 226 133 L 235 128 L 235 97 L 227 101 L 225 103 L 225 113 L 223 114 L 215 110 L 214 118 L 213 119 L 205 116 L 203 113 L 194 118 L 193 109 L 192 109 L 184 105 Q 181 106 182 104 L 192 98 L 193 98 L 193 88 L 182 94 L 161 84 L 181 73 L 182 74 L 182 82 L 193 77 L 193 67 L 182 72 L 182 62 L 163 72 L 161 72 L 161 63 L 152 67 L 150 69 L 150 78 L 131 68 L 129 69 L 129 78 L 139 84 L 131 88 L 129 89 L 129 99 L 121 103 L 119 103 L 118 105 L 110 109 L 108 108 L 107 110 L 99 114 L 97 113 L 97 93 L 118 103 L 118 94 L 107 88 L 108 77 L 129 88 L 129 79 L 86 57 Z M 213 57 L 203 63 L 204 72 L 214 67 L 214 58 L 213 57 Z M 203 72 L 195 76 L 193 78 L 193 87 L 202 83 L 203 84 L 203 92 L 214 87 L 214 77 L 203 82 L 203 72 Z M 224 82 L 216 86 L 214 88 L 214 107 L 225 102 L 225 83 L 224 82 Z M 214 203 L 214 223 L 224 228 L 225 228 L 225 209 L 214 203 Z M 172 212 L 171 222 L 213 243 L 214 243 L 214 224 L 193 213 L 193 223 L 172 212 Z M 97 228 L 88 233 L 86 234 L 86 243 L 97 238 L 97 228 Z M 85 244 L 77 248 L 75 250 L 75 259 L 86 254 L 86 245 L 85 244 Z M 214 244 L 214 254 L 224 259 L 225 259 L 225 250 L 214 244 Z M 74 260 L 67 264 L 65 265 L 65 274 L 75 270 L 75 261 L 74 260 Z M 225 260 L 225 270 L 234 274 L 235 274 L 235 264 L 225 260 Z " /><path fill="rgb(0,0,0)" stroke="rgb(0,0,0)" stroke-width="1" opacity="0" d="M 148.5 89 L 150 89.5 L 150 98 L 140 93.5 L 148.5 89 Z " /><path fill="rgb(0,0,0)" stroke="rgb(0,0,0)" stroke-width="1" opacity="0" d="M 138.5 94 L 139 103 L 130 98.5 L 138.5 94 Z " /><path fill="rgb(0,0,0)" stroke="rgb(0,0,0)" stroke-width="1" opacity="0" d="M 161.5 94 L 170 98.5 L 161 103 L 161.5 94 Z " /><path fill="rgb(0,0,0)" stroke="rgb(0,0,0)" stroke-width="1" opacity="0" d="M 171.5 99 L 180 103.5 L 171 108 L 171.5 99 Z " /><path fill="rgb(0,0,0)" stroke="rgb(0,0,0)" stroke-width="1" opacity="0" d="M 129 109 L 139 113 Q 140.1 115.7 137.5 115 L 129 119 L 128.5 129 L 118 124 L 118 114.5 L 119.5 114 L 128.5 119 L 129 109 Z " /><path fill="rgb(0,0,0)" stroke="rgb(0,0,0)" stroke-width="1" opacity="0" d="M 150.5 109 L 160.5 114 L 171 109 L 171.5 119 L 182 114 L 182 122.5 L 183.5 123 L 191.5 119 L 193 120.5 L 193 129 L 189.5 129 L 182.5 125 L 182 134 L 171 130 L 170.5 140 L 160.5 134 L 150 139 L 150.5 109 Z M 161 115 L 162 134 L 170 130 L 171 129 L 171 119 L 161 115 Z " /><path fill="rgb(0,0,0)" stroke="rgb(0,0,0)" stroke-width="1" opacity="0" d="M 86.5 118 L 87.5 120 Q 84.7 120.7 86.5 118 Z " /><path fill="rgb(0,0,0)" stroke="rgb(0,0,0)" stroke-width="1" opacity="0" d="M 96.5 125 L 97 133.5 L 95.5 133 L 88 129.5 L 96.5 125 Z " /><path fill="rgb(0,0,0)" stroke="rgb(0,0,0)" stroke-width="1" opacity="0" d="M 107.5 140 L 118 144 Q 119.1 146.7 116.5 146 L 107 151.5 L 107 158.5 L 105.5 159 L 97 155 L 97 145.5 L 98.5 145 L 107.5 140 Z " /><path fill="rgb(0,0,0)" stroke="rgb(0,0,0)" stroke-width="1" opacity="0" d="M 128.5 140 L 129 149.5 L 127.5 149 L 120 146 Q 118.9 143.3 121.5 144 L 128.5 140 Z " /><path fill="rgb(0,0,0)" stroke="rgb(0,0,0)" stroke-width="1" opacity="0" d="M 190.5 140 L 193 140.5 L 193 150.5 L 191.5 150 L 182 146 L 182 154.5 L 180.5 155 L 171.5 160 L 171 150.5 L 190.5 140 Z " /><path fill="rgb(0,0,0)" stroke="rgb(0,0,0)" stroke-width="1" opacity="0" d="M 203 146 L 214 151.5 Q 215.8 158.3 212.5 160 L 200.5 165 L 193 160.5 Q 192.3 158.3 194.5 159 L 203 155 L 203 146 Z " /><path fill="rgb(0,0,0)" stroke="rgb(0,0,0)" stroke-width="1" opacity="0" d="M 182 156 L 191 160.5 L 182.5 165 L 182 156 Z " /><path fill="rgb(0,0,0)" stroke="rgb(0,0,0)" stroke-width="1" opacity="0" d="M 129.5 160 L 139 165.5 L 129.5 171 L 129.5 160 Z " /><path fill="rgb(0,0,0)" stroke="rgb(0,0,0)" stroke-width="1" opacity="0" d="M 150 161 L 161 166.5 L 161 184.5 L 162.5 185 L 181.5 176 L 190 180 Q 191.1 182.7 188.5 182 L 180.5 186 L 171.5 181 L 171 191 L 159.5 186 L 150.5 191 L 150 161 Z " /><path fill="rgb(0,0,0)" stroke="rgb(0,0,0)" stroke-width="1" opacity="0" d="M 214 172 L 222 175.5 L 214 179 L 214 172 Z " /><path fill="rgb(0,0,0)" stroke="rgb(0,0,0)" stroke-width="1" opacity="0" d="M 97 176 L 99.5 176 L 107 180.5 L 107.5 182 L 109.5 181 L 118 185 L 118.5 207 L 129 202 L 129 211.5 L 127.5 213 L 118 217 L 117.5 207 L 107 212 L 107 203.5 L 105.5 203 L 97 207 L 96.5 187 L 86 192 L 86 182.5 L 87.5 181 L 96.5 185 L 97 176 Z " /><path fill="rgb(0,0,0)" stroke="rgb(0,0,0)" stroke-width="1" opacity="0" d="M 138.5 176 L 139 185 L 130 180.5 L 138.5 176 Z " /><path fill="rgb(0,0,0)" stroke="rgb(0,0,0)" stroke-width="1" opacity="0" d="M 212.5 180 Q 214.8 179.3 214 181.5 L 212.5 180 Z " /><path fill="rgb(0,0,0)" stroke="rgb(0,0,0)" stroke-width="1" opacity="0" d="M 223 185 Q 226 184 225 187 Q 222 188 223 185 Z " /><path fill="rgb(0,0,0)" stroke="rgb(0,0,0)" stroke-width="1" opacity="0" d="M 192.5 190 L 193 202 L 182 196.5 Q 181.3 194.3 183.5 195 L 192.5 190 Z " /><path fill="rgb(0,0,0)" stroke="rgb(0,0,0)" stroke-width="1" opacity="0" d="M 161 197 L 170 201.5 L 161.5 206 L 161 197 Z " /><path fill="rgb(0,0,0)" stroke="rgb(0,0,0)" stroke-width="1" opacity="0" d="M 148.5 202 L 151.5 202 L 160 206.5 L 151.5 211 L 148.5 211 L 140 206.5 L 148.5 202 Z " /><path fill="rgb(191,195,196)" stroke="rgb(191,195,196)" stroke-width="1" opacity="1" d="M 65 26 L 75 30 L 75 39.5 L 73.5 40 L 65 36 L 65 26 Z " /><path fill="rgb(191,195,196)" stroke="rgb(191,195,196)" stroke-width="1" opacity="1" d="M 233.5 26 L 235 26.5 L 235 36 L 225 40 L 225 30.5 L 226.5 30 L 233.5 26 Z " /><path fill="rgb(191,195,196)" stroke="rgb(191,195,196)" stroke-width="1" opacity="1" d="M 75 41 L 86 46.5 L 86 55.5 L 84.5 56 L 75 50.5 L 75 41 Z " /><path fill="rgb(191,195,196)" stroke="rgb(191,195,196)" stroke-width="1" opacity="1" d="M 223.5 41 L 225 41.5 L 225 50.5 L 214 56 L 214 46.5 L 215.5 45 L 223.5 41 Z " /><path fill="rgb(191,195,196)" stroke="rgb(191,195,196)" stroke-width="1" opacity="1" d="M 86 57 L 128.5 78 L 129 68 L 149.5 78 L 150 68.5 L 151.5 67 L 161 63 L 161 71.5 L 162.5 72 L 181.5 62 L 182 72 L 192.5 67 L 193.5 77 L 203 71.5 L 203 62.5 L 204.5 61 L 214 57 L 214 66.5 L 212.5 67 L 203 72.5 L 203 81.5 L 204.5 82 L 213.5 77 L 214.5 87 L 225 82 L 225.5 102 L 234.5 97 L 235 127.5 L 225 133.5 L 225 153.5 Q 222.2 152.9 223 156 L 225 156.5 L 225 176.5 L 232.5 181 L 235 180 L 234.5 213 L 225.5 208 L 225 228 L 214.5 223 L 214 243 L 171.5 222 L 171 232 L 149.5 222 L 139 227 L 139 237.5 L 137.5 238 L 129 242 L 128.5 222 L 118 227 L 118 218.5 L 116.5 218 L 97 228.5 L 97 237.5 L 95.5 239 L 86 243 L 86 233.5 L 87.5 233 L 97 227.5 L 97 208.5 L 95.5 208 L 86.5 213 L 86 193 L 75.5 198 L 75 194 L 67.5 191 L 65 192 L 65 180.5 L 66.5 180 L 68.5 180 L 75 176.5 L 75.5 174 L 79.5 175 L 86 172 L 86 151.5 L 87 149.5 L 86 148.5 L 86 128 L 79.5 125 L 76.5 125 L 75 125.5 L 75 116.5 L 73.5 116 L 65 120 L 65 110.5 Q 67.8 111.1 67 108 L 65 107.5 L 65 97.5 L 66.5 98 L 86 107 L 86.5 87 L 97 92 L 97 72.5 L 95.5 71 L 86 67 L 86 57 Z M 181 73 L 161 84 L 182 94 L 192 88 L 193 89 L 193 98 L 184 102 L 182 105 L 191 109 L 193 108 L 194 118 L 203 113 L 203 115 L 213 119 L 214 118 L 215 110 L 222 114 L 225 113 L 225 102 L 214 107 L 214 87 L 205 92 L 203 92 L 203 83 L 193 87 L 193 77 L 184 82 L 182 82 L 182 73 L 181 73 Z M 108 77 L 107 88 L 117 92 L 118 94 L 118 103 L 120 104 L 128 100 L 129 99 L 129 89 L 108 77 Z M 130 78 L 129 88 L 139 84 L 130 78 Z M 149 89 L 140 94 L 150 98 L 150 90 L 149 89 Z M 97 93 L 97 113 L 99 114 L 106 111 L 107 109 L 109 109 L 117 105 Q 119 106 118 104 L 97 93 Z M 139 94 L 130 99 L 139 103 L 139 94 Z M 162 94 L 161 103 L 170 99 L 162 94 Z M 172 99 L 171 108 L 180 104 L 172 99 Z M 129 109 L 129 119 L 138 115 Q 140 116 139 113 L 129 109 Z M 151 109 L 150 139 L 160 135 L 161 134 L 161 115 L 170 119 L 171 119 L 171 109 L 161 114 L 151 109 Z M 118 114 L 118 124 L 129 129 L 129 120 L 118 114 Z M 181 114 L 173 118 L 171 120 L 171 129 L 161 135 L 171 140 L 171 130 L 182 134 L 183 125 L 190 129 L 193 129 L 193 121 L 192 119 L 184 123 L 182 123 L 182 114 L 181 114 Z M 87 118 Q 85 121 88 120 L 87 118 Z M 97 125 L 88 130 L 96 133 L 97 134 L 97 125 Z M 221 125 L 216 128 Q 213 127 214 130 L 211 130 L 205 133 L 203 136 L 214 141 L 214 138 L 224 134 Q 227 132 225 127 Q 224 124 221 125 Z M 108 140 L 99 145 L 97 146 L 97 155 L 106 159 L 107 159 L 107 152 L 117 146 Q 119 147 118 144 L 108 140 Z M 129 140 L 122 144 Q 119 143 120 146 L 128 149 L 129 150 L 129 140 Z M 191 140 L 171 151 L 172 160 L 181 155 L 182 155 L 182 146 L 192 150 L 193 151 L 193 141 L 191 140 Z M 203 146 L 203 155 L 195 159 Q 192 158 193 161 L 201 165 L 213 160 Q 216 158 214 152 L 203 146 Z M 182 156 L 183 165 L 191 161 L 182 156 Z M 130 160 L 130 171 L 139 166 L 130 160 Z M 150 161 L 151 191 L 160 186 L 170 191 L 171 191 L 171 181 L 163 185 L 161 185 L 161 167 L 150 161 Z M 214 172 L 214 179 L 222 176 L 214 172 Z M 97 176 L 97 185 L 88 181 L 86 183 L 86 192 L 97 187 L 97 207 L 106 203 L 107 204 L 107 212 L 117 208 L 118 207 L 118 185 L 110 181 L 108 182 L 107 181 L 100 176 L 97 176 Z M 139 176 L 130 181 L 139 185 L 139 176 Z M 180 176 L 171 181 L 181 186 L 189 182 Q 191 183 190 180 L 180 176 Z M 213 180 L 214 182 Q 215 179 213 180 Z M 223 185 Q 222 188 225 187 Q 226 184 223 185 Z M 204 187 L 203 207 L 195 203 L 193 204 L 193 212 L 173 202 L 171 203 L 171 212 L 193 223 L 193 213 L 214 223 L 214 203 L 225 208 L 225 199 L 204 187 Z M 193 190 L 184 195 Q 181 194 182 197 L 193 202 L 193 190 Z M 161 197 L 162 206 L 170 202 L 161 197 Z M 128 202 L 120 206 L 118 208 L 118 217 L 129 212 L 129 203 L 128 202 Z M 149 202 L 140 207 L 149 211 L 152 211 L 160 207 L 152 202 L 149 202 Z M 170 212 L 161 217 L 170 221 L 171 222 L 171 213 L 170 212 Z " /><path fill="rgb(191,195,196)" stroke="rgb(191,195,196)" stroke-width="1" opacity="1" d="M 84.5 244 L 86 244.5 L 86 253.5 L 75 259 L 75 249.5 L 76.5 248 L 84.5 244 Z " /><path fill="rgb(191,195,196)" stroke="rgb(191,195,196)" stroke-width="1" opacity="1" d="M 214 244 L 225 249.5 L 225 258.5 L 223.5 259 L 214 253.5 L 214 244 Z " /><path fill="rgb(191,195,196)" stroke="rgb(191,195,196)" stroke-width="1" opacity="1" d="M 73.5 260 L 75 260.5 L 75 270 L 65 274 L 65 264.5 L 66.5 264 L 73.5 260 Z " /><path fill="rgb(191,195,196)" stroke="rgb(191,195,196)" stroke-width="1" opacity="1" d="M 225 260 L 235 264 L 235 273.5 L 233.5 274 L 225 270 L 225 260 Z " /></svg>