<svg width="512" height="512" version="1.1" xmlns="http://www.w3.org/2000/svg" desc="Created with imagetracer.js version 0.2.1" ><path fill="rgb(0,0,0)" stroke="rgb(0,0,0)" stroke-width="1" opacity="0" d="M 0 0 L 512 0 L 512 512 L 0 512 L 0 0 Z M 187 5 L 177 12 Q 174 11 175 14 L 168 20 Q 157 28 150 40 L 147 42 L 134 57 L 117 73 L 116 33 L 115 31 L 110 26 L 101 26 L 100 25 L 42 26 L 36 31 L 36 99 L 37 101 L 45 106 L 83 107 L 46 149 L 44 153 L 42 154 L 21 178 L 21 190 L 42 212 Q 41 214 44 213 L 62 234 L 65 235 L 71 244 L 74 245 L 91 265 L 94 266 L 111 286 L 115 288 L 131 307 L 142 315 Q 144 314 143 317 L 152 317 L 164 308 L 166 304 L 176 298 L 178 294 L 189 287 L 221 259 L 224 260 L 226 264 L 235 272 L 235 274 L 203 308 L 189 322 L 187 322 L 179 333 L 170 341 L 136 377 Q 137 379 135 378 L 55 462 Q 52 461 53 464 L 49 466 L 49 469 L 43 475 L 66 496 L 76 503 Q 75 506 80 504 L 81 502 L 111 472 L 112 472 L 112 471 L 127 455 L 131 451 L 132 452 L 137 445 L 143 440 L 147 435 L 154 429 L 157 425 L 166 416 L 167 416 L 167 415 L 273 309 L 276 311 L 279 316 L 286 321 L 289 326 L 296 331 L 300 337 L 308 343 L 311 348 L 315 350 L 322 359 L 338 372 L 343 379 L 347 381 L 354 390 L 357 391 L 364 400 L 369 403 L 373 408 L 375 445 L 386 454 L 405 454 L 406 455 L 447 455 L 448 454 L 460 454 L 462 453 L 469 446 L 469 419 L 470 418 L 470 376 L 468 368 Q 464 361 456 359 L 418 359 L 417 358 L 413 354 L 406 347 L 399 340 L 399 339 L 388 328 L 386 328 L 376 316 Q 373 311 368 310 Q 365 309 367 308 L 365 305 L 359 300 L 353 295 L 353 293 L 347 287 L 337 276 Q 334 277 335 275 L 327 268 L 324 262 Q 320 263 321 261 L 385 198 L 386 196 L 395 188 L 413 169 L 416 169 Q 426 177 439 181 L 439 179 L 451 156 L 491 69 L 499 64 L 500 61 L 503 60 Q 502 57 505 58 L 506 56 L 506 46 L 501 39 L 501 36 L 499 35 L 492 37 Q 488 36 489 39 L 485 42 Q 482 41 483 44 L 476 48 L 473 53 L 471 56 L 468 57 L 469 59 L 475 56 L 476 57 L 465 62 Q 462 61 463 64 L 460 65 L 458 65 L 457 67 L 455 67 L 387 102 Q 383 101 384 104 L 351 121 L 346 122 Q 345 125 348 127 Q 347 130 350 129 L 353 134 L 358 139 L 357 140 L 360 142 L 359 145 L 344 161 L 323 182 L 321 182 L 320 186 L 297 208 L 297 210 L 285 222 L 269 208 L 272 201 L 293 171 Q 292 168 295 169 L 305 154 Q 304 151 307 152 L 317 134 Q 319 127 316 126 Q 317 122 314 123 L 313 120 L 305 112 L 300 107 L 296 103 L 290 97 L 282 90 L 278 86 L 275 83 L 268 76 L 253 62 L 246 55 L 238 47 Q 235 48 236 46 L 231 41 L 224 33 L 216 27 L 214 25 L 197 8 Q 194 4 187 5 Z " /><path fill="rgb(40,2,61)" stroke="rgb(40,2,61)" stroke-width="1" opacity="0.9725490196078431" d="M 474.5 58 L 476 58.5 L 471.5 61 L 436 95.5 L 434.5 98 L 431.5 100 L 406.5 125 L 405 125 Q 406.1 127.7 403.5 127 L 399.5 132 L 377 153.5 L 375.5 156 L 360.5 146 L 284.5 224 L 284 222.5 L 344 160.5 L 359 144.5 L 360 141.5 L 348 127.5 L 346 122 L 350.5 121 L 444.5 72 L 474.5 58 Z " /><path fill="rgb(40,2,61)" stroke="rgb(40,2,61)" stroke-width="1" opacity="0.9725490196078431" d="M 490 67 L 492 67.5 L 459 138.5 L 454 146.5 L 449 159.5 L 444 167.5 L 439 181 L 434.5 180 L 415.5 169 L 412.5 169 L 394.5 188 L 386 195.5 L 384.5 198 L 320.5 261 L 320 259.5 L 402 176.5 L 390 167.5 L 391.5 165 Q 393.8 165.8 393 163.5 L 430.5 127 L 432 127 Q 430.9 124.3 433.5 125 L 465 92.5 L 465 91 L 467 91 Q 465.9 88.3 468.5 89 L 490 68.5 L 490 67 Z " /><path fill="rgb(40,2,61)" stroke="rgb(40,2,61)" stroke-width="1" opacity="0.9725490196078431" d="M 235.5 273 L 237 273.5 L 179.5 332 L 203 307.5 L 235.5 273 Z " /><path fill="rgb(40,2,61)" stroke="rgb(40,2,61)" stroke-width="1" opacity="0.9725490196078431" d="M 272.5 308 L 199.5 382 L 272.5 308 Z " /><path fill="rgb(40,2,61)" stroke="rgb(40,2,61)" stroke-width="1" opacity="0.9725490196078431" d="M 178.5 333 L 167.5 345 L 178.5 333 Z " /><path fill="rgb(40,2,61)" stroke="rgb(40,2,61)" stroke-width="1" opacity="0.9725490196078431" d="M 160.5 351 L 159.5 353 L 160.5 351 Z " /><path fill="rgb(40,2,61)" stroke="rgb(40,2,61)" stroke-width="1" opacity="0.9725490196078431" d="M 192.5 388 L 191.5 390 L 192.5 388 Z " /><path fill="rgb(40,2,61)" stroke="rgb(40,2,61)" stroke-width="1" opacity="0.9725490196078431" d="M 106.5 408 L 97.5 418 L 106.5 408 Z " /><path fill="rgb(40,2,61)" stroke="rgb(40,2,61)" stroke-width="1" opacity="0.9725490196078431" d="M 94.5 421 L 81 435.5 L 44.5 475 L 43 474.5 L 94.5 421 Z " /><path fill="rgb(40,2,61)" stroke="rgb(40,2,61)" stroke-width="1" opacity="0.9725490196078431" d="M 91.5 490 L 81 501.5 L 79.5 504 L 76 502.5 L 77.5 503 L 91.5 490 Z " /><path fill="rgb(40,2,61)" stroke="rgb(40,2,61)" stroke-width="1" opacity="0.9725490196078431" d="M 68.5 497 L 69.5 499 L 68.5 497 Z " /><path fill="rgb(92,92,110)" stroke="rgb(92,92,110)" stroke-width="1" opacity="0.8745098039215686" d="M 189.5 5 L 192 5.5 L 189.5 6 L 189.5 5 Z " /><path fill="rgb(92,92,110)" stroke="rgb(92,92,110)" stroke-width="1" opacity="0.8745098039215686" d="M 196.5 8 L 203.5 16 L 196.5 8 Z " /><path fill="rgb(92,92,110)" stroke="rgb(92,92,110)" stroke-width="1" opacity="0.8745098039215686" d="M 179.5 9 L 173.5 16 L 179.5 9 Z " /><path fill="rgb(92,92,110)" stroke="rgb(92,92,110)" stroke-width="1" opacity="0.8745098039215686" d="M 205.5 17 L 209.5 22 L 205.5 17 Z " /><path fill="rgb(92,92,110)" stroke="rgb(92,92,110)" stroke-width="1" opacity="0.8745098039215686" d="M 167.5 20 L 157 31.5 Q 157.8 33.8 155.5 33 L 167.5 20 Z " /><path fill="rgb(92,92,110)" stroke="rgb(92,92,110)" stroke-width="1" opacity="0.8745098039215686" d="M 211.5 22 L 212.5 24 L 211.5 22 Z " /><path fill="rgb(92,92,110)" stroke="rgb(92,92,110)" stroke-width="1" opacity="0.8745098039215686" d="M 62.5 25 L 98.5 25 L 99.5 26 L 109.5 26 L 114 29.5 L 116 33.5 L 116.5 73 L 122 68.5 L 114.5 77 L 114 73.5 L 115 68.5 L 114 67.5 L 114 32.5 L 110.5 28 L 106.5 27 L 43.5 27 L 38 30.5 L 37 32.5 L 37 81.5 L 38 82.5 L 38 98.5 L 41.5 103 L 43.5 104 L 85.5 104 L 87.5 103 L 89 103.5 Q 88.3 101.3 90.5 102 L 99 94.5 L 102.5 90 L 110 83.5 L 113 78 Q 115.7 76.9 115 79.5 L 103 91.5 L 103 93 L 106 93.5 L 99.5 95 L 90.5 104 Q 84.2 104.7 82 109.5 L 23 177.5 Q 20.7 180.7 22 187.5 L 140.5 313 Q 143.5 316 150.5 315 L 158.5 310 L 221.5 257 L 213.5 266 L 165 305.5 Q 165.8 307.8 163.5 307 L 154.5 315 L 149.5 317 L 147.5 316 L 145.5 317 Q 134.8 312.8 129 303.5 Q 129.8 301.3 127.5 302 L 85.5 257 L 83 255.5 L 24 192.5 Q 18.9 189.1 21 178.5 L 83 106.5 L 44.5 106 L 37 100.5 L 36 97.5 L 36 30.5 L 41.5 26 L 61.5 26 L 62.5 25 Z " /><path fill="rgb(92,92,110)" stroke="rgb(92,92,110)" stroke-width="1" opacity="0.8745098039215686" d="M 216.5 27 L 224.5 36 L 216.5 27 Z " /><path fill="rgb(92,92,110)" stroke="rgb(92,92,110)" stroke-width="1" opacity="0.8745098039215686" d="M 152.5 36 L 151.5 38 L 152.5 36 Z " /><path fill="rgb(92,92,110)" stroke="rgb(92,92,110)" stroke-width="1" opacity="0.8745098039215686" d="M 501.5 39 Q 505 43.5 504 52.5 Q 500.7 60.7 493.5 65 L 493 63.5 L 495.5 57 L 496.5 60 L 503 48.5 L 501 42.5 L 501.5 39 Z " /><path fill="rgb(92,92,110)" stroke="rgb(92,92,110)" stroke-width="1" opacity="0.8745098039215686" d="M 148.5 41 L 145.5 45 L 145 43 L 148.5 41 Z " /><path fill="rgb(92,92,110)" stroke="rgb(92,92,110)" stroke-width="1" opacity="0.8745098039215686" d="M 232.5 42 L 235.5 46 Q 233.3 46.8 234 44.5 L 232.5 42 Z " /><path fill="rgb(92,92,110)" stroke="rgb(92,92,110)" stroke-width="1" opacity="0.8745098039215686" d="M 143.5 46 L 135.5 55 L 143.5 46 Z " /><path fill="rgb(92,92,110)" stroke="rgb(92,92,110)" stroke-width="1" opacity="0.8745098039215686" d="M 498.5 46 Q 501.1 45.2 500 48.5 L 498.5 51 L 498 49.5 L 499 47.5 L 498.5 46 Z " /><path fill="rgb(92,92,110)" stroke="rgb(92,92,110)" stroke-width="1" opacity="0.8745098039215686" d="M 237.5 47 L 245.5 56 L 237.5 47 Z " /><path fill="rgb(92,92,110)" stroke="rgb(92,92,110)" stroke-width="1" opacity="0.8745098039215686" d="M 247.5 57 L 248.5 59 L 247.5 57 Z " /><path fill="rgb(92,92,110)" stroke="rgb(92,92,110)" stroke-width="1" opacity="0.8745098039215686" d="M 474.5 57 L 476 57.5 L 472.5 59 L 472.5 58 L 474.5 57 Z " /><path fill="rgb(92,92,110)" stroke="rgb(92,92,110)" stroke-width="1" opacity="0.8745098039215686" d="M 253.5 62 L 256.5 66 Q 254.3 66.8 255 64.5 L 253.5 62 Z " /><path fill="rgb(92,92,110)" stroke="rgb(92,92,110)" stroke-width="1" opacity="0.8745098039215686" d="M 126.5 63 L 128 63.5 L 123.5 67 L 126.5 63 Z " /><path fill="rgb(92,92,110)" stroke="rgb(92,92,110)" stroke-width="1" opacity="0.8745098039215686" d="M 260.5 69 L 262.5 72 L 260.5 69 Z " /><path fill="rgb(92,92,110)" stroke="rgb(92,92,110)" stroke-width="1" opacity="0.8745098039215686" d="M 264.5 73 L 265.5 75 L 264.5 73 Z " /><path fill="rgb(92,92,110)" stroke="rgb(92,92,110)" stroke-width="1" opacity="0.8745098039215686" d="M 275.5 83 L 278 86.5 L 277 86.5 L 275.5 83 Z " /><path fill="rgb(92,92,110)" stroke="rgb(92,92,110)" stroke-width="1" opacity="0.8745098039215686" d="M 283.5 91 L 288.5 97 L 283.5 91 Z " /><path fill="rgb(92,92,110)" stroke="rgb(92,92,110)" stroke-width="1" opacity="0.8745098039215686" d="M 110.5 95 L 147 130.5 L 142.5 127 L 134 119.5 L 111.5 96 L 110.5 95 Z " /><path fill="rgb(92,92,110)" stroke="rgb(92,92,110)" stroke-width="1" opacity="0.8745098039215686" d="M 290.5 98 L 292.5 101 L 290.5 98 Z " /><path fill="rgb(92,92,110)" stroke="rgb(92,92,110)" stroke-width="1" opacity="0.8745098039215686" d="M 295.5 103 L 300 106.5 L 297.5 105 L 295.5 103 Z " /><path fill="rgb(92,92,110)" stroke="rgb(92,92,110)" stroke-width="1" opacity="0.8745098039215686" d="M 305.5 112 L 312.5 120 L 305.5 112 Z " /><path fill="rgb(92,92,110)" stroke="rgb(92,92,110)" stroke-width="1" opacity="0.8745098039215686" d="M 315.5 124 Q 317.8 126.8 317 132.5 L 314.5 137 L 315 135.5 L 316 127.5 L 315.5 124 Z " /><path fill="rgb(92,92,110)" stroke="rgb(92,92,110)" stroke-width="1" opacity="0.8745098039215686" d="M 147.5 132 L 214.5 200 L 238 222.5 L 240 230.5 L 238.5 233 L 237 223.5 L 162.5 148 L 147 133.5 L 147.5 132 Z " /><path fill="rgb(92,92,110)" stroke="rgb(92,92,110)" stroke-width="1" opacity="0.8745098039215686" d="M 311.5 142 L 310.5 144 L 311.5 142 Z " /><path fill="rgb(92,92,110)" stroke="rgb(92,92,110)" stroke-width="1" opacity="0.8745098039215686" d="M 308.5 147 L 307 149.5 L 306.5 151 L 306 149.5 L 308.5 147 Z " /><path fill="rgb(92,92,110)" stroke="rgb(92,92,110)" stroke-width="1" opacity="0.8745098039215686" d="M 297 162 L 299 162.5 L 295 165.5 L 297 162 Z " /><path fill="rgb(92,92,110)" stroke="rgb(92,92,110)" stroke-width="1" opacity="0.8745098039215686" d="M 290.5 173 L 289.5 175 L 290.5 173 Z " /><path fill="rgb(92,92,110)" stroke="rgb(92,92,110)" stroke-width="1" opacity="0.8745098039215686" d="M 288.5 176 L 287.5 178 L 288.5 176 Z " /><path fill="rgb(92,92,110)" stroke="rgb(92,92,110)" stroke-width="1" opacity="0.8745098039215686" d="M 286.5 179 L 286 180.5 L 282.5 185 L 285 181.5 L 286.5 179 Z " /><path fill="rgb(92,92,110)" stroke="rgb(92,92,110)" stroke-width="1" opacity="0.8745098039215686" d="M 281.5 186 L 280.5 188 L 281.5 186 Z " /><path fill="rgb(92,92,110)" stroke="rgb(92,92,110)" stroke-width="1" opacity="0.8745098039215686" d="M 278.5 191 L 278 192.5 L 275.5 197 L 275 195.5 L 278.5 191 Z " /><path fill="rgb(92,92,110)" stroke="rgb(92,92,110)" stroke-width="1" opacity="0.8745098039215686" d="M 273.5 198 L 272.5 200 L 273.5 198 Z " /><path fill="rgb(92,92,110)" stroke="rgb(92,92,110)" stroke-width="1" opacity="0.8745098039215686" d="M 270.5 203 L 269.5 205 L 270.5 203 Z " /><path fill="rgb(92,92,110)" stroke="rgb(92,92,110)" stroke-width="1" opacity="0.8745098039215686" d="M 264.5 207 L 265 209 L 263 208.5 L 264.5 207 Z " /><path fill="rgb(92,92,110)" stroke="rgb(92,92,110)" stroke-width="1" opacity="0.8745098039215686" d="M 259.5 212 L 260 213.5 L 256.5 218 L 258 215.5 L 259.5 212 Z " /><path fill="rgb(92,92,110)" stroke="rgb(92,92,110)" stroke-width="1" opacity="0.8745098039215686" d="M 255.5 219 L 254.5 221 L 255.5 219 Z " /><path fill="rgb(92,92,110)" stroke="rgb(92,92,110)" stroke-width="1" opacity="0.8745098039215686" d="M 252.5 223 L 251.5 225 L 252.5 223 Z " /><path fill="rgb(92,92,110)" stroke="rgb(92,92,110)" stroke-width="1" opacity="0.8745098039215686" d="M 250.5 226 L 246.5 231 L 250.5 226 Z " /><path fill="rgb(92,92,110)" stroke="rgb(92,92,110)" stroke-width="1" opacity="0.8745098039215686" d="M 245.5 232 L 236.5 242 L 237 240.5 Q 236 236 238.5 235 L 239 236.5 L 238 238.5 L 245.5 232 Z " /><path fill="rgb(92,92,110)" stroke="rgb(92,92,110)" stroke-width="1" opacity="0.8745098039215686" d="M 233.5 243 L 229.5 248 L 233.5 243 Z " /><path fill="rgb(92,92,110)" stroke="rgb(92,92,110)" stroke-width="1" opacity="0.8745098039215686" d="M 225.5 251 L 222.5 255 L 225.5 251 Z " /><path fill="rgb(74,73,89)" stroke="rgb(74,73,89)" stroke-width="1" opacity="0.984313725490196" d="M 188.5 5 L 194.5 7 L 203.5 16 L 205 16 L 209.5 22 L 214 25.5 Q 213.3 27.8 215.5 27 L 228 38.5 Q 227.3 41.1 230 40 L 230 42 L 231.5 42 L 234 46 L 247 56 L 248.5 59 L 255 64.5 Q 254.3 66.8 256.5 66 L 264 72 L 265.5 75 L 268 76.5 Q 267.3 78.8 269.5 78 L 271 81 L 277 85.5 Q 276.3 87.8 278.5 87 L 288.5 97 L 290 97 L 292.5 101 L 295 102.5 L 296.5 105 L 313 120.5 Q 316.5 124 316 131.5 L 312 141.5 L 299 162 Q 296.3 160.9 297 163.5 L 272 199.5 L 269 206 Q 261.9 206.4 259 212.5 Q 251.1 228.1 238.5 239 L 238 237.5 L 240 227.5 L 238 222.5 L 215.5 200 L 191 176.5 L 111.5 95 L 103 93 L 103 91.5 L 115 79.5 L 116 74.5 L 126.5 64 Q 128.8 64.8 128 62.5 L 144 46.5 L 144 45 L 149 41.5 L 155.5 33 Q 157.8 33.8 157 31.5 L 169.5 19 L 171 19 L 172.5 16 L 181.5 8 L 188.5 5 Z " /><path fill="rgb(74,73,89)" stroke="rgb(74,73,89)" stroke-width="1" opacity="0.984313725490196" d="M 503.5 43 Q 506.5 46 505 53.5 L 499 62 Q 496.3 60.9 497 63.5 L 492.5 68 L 491.5 67 L 485 72.5 L 480.5 78 L 470 85.5 L 433.5 125 L 430.5 127 L 393 163.5 Q 393.8 165.8 391.5 165 Q 388.7 168.7 381.5 168 L 376 163.5 Q 374.7 156.7 377 153.5 L 398.5 132 L 402 129.5 L 403.5 127 L 406.5 125 L 431.5 100 L 433 100 Q 431.9 97.3 434.5 98 L 438.5 93 L 471.5 61 L 476 59 L 477.5 56 L 482.5 54 L 482.5 55 L 479.5 57 L 447.5 89 L 446 89 L 446 91 L 444 91 Q 445.1 93.7 442.5 93 L 412.5 123 L 411 123 L 411 125 L 409 125 Q 410.1 127.7 407.5 127 L 380 153.5 Q 376.8 155.8 378 162.5 Q 379 167 385.5 166 L 388.5 165 L 456 98.5 L 472.5 80 L 482 74 Q 480.9 71.3 483.5 72 L 493.5 61 L 494 62.5 L 493 64.5 L 502 56.5 Q 505.2 53.2 504 45.5 L 503.5 43 Z " /><path fill="rgb(74,73,89)" stroke="rgb(74,73,89)" stroke-width="1" opacity="0.984313725490196" d="M 76.5 173 L 84.5 173 L 100.5 177 L 128.5 180 L 142.5 183 L 146 185.5 L 149 189.5 L 149 194.5 L 160 246.5 L 163 255.5 L 163 260.5 L 158.5 266 L 151.5 265 L 144 258.5 L 129 241.5 L 71 183.5 L 71 179.5 L 74.5 174 L 76.5 173 Z " /><path fill="rgb(74,73,89)" stroke="rgb(74,73,89)" stroke-width="1" opacity="0.984313725490196" d="M 299.5 239 L 305.5 246 L 299.5 239 Z " /><path fill="rgb(74,73,89)" stroke="rgb(74,73,89)" stroke-width="1" opacity="0.984313725490196" d="M 307.5 248 L 308.5 250 L 307.5 248 Z " /><path fill="rgb(74,73,89)" stroke="rgb(74,73,89)" stroke-width="1" opacity="0.984313725490196" d="M 237.5 273 L 243.5 280 L 237.5 273 Z " /><path fill="rgb(97,94,108)" stroke="rgb(97,94,108)" stroke-width="1" opacity="0.9882352941176471" d="M 43.5 27 L 106.5 27 L 110.5 28 L 113 30.5 L 114 32.5 L 114 67.5 L 115 72.5 L 114 76.5 L 114.5 78 Q 112.3 77.3 113 79.5 L 103.5 90 L 99 93.5 Q 98.3 95.8 100.5 95 Q 101.8 92.8 106.5 94 L 111.5 96 L 134 118.5 L 141.5 127 L 147 131.5 L 147 133.5 L 161.5 148 L 189 174.5 L 237 223.5 L 239 234.5 Q 236 235.5 237 240.5 L 234.5 243 L 222 254.5 Q 222.5 258.5 219.5 259 L 153.5 314 L 144.5 315 L 140.5 313 L 122 294.5 L 25 191.5 Q 20.3 188.7 22 179.5 L 86.5 105 L 89 104.5 L 86.5 103 L 85.5 104 L 43.5 104 L 39 100.5 L 38 98.5 L 38 82.5 L 37 81.5 L 37 32.5 L 40.5 28 L 43.5 27 Z M 96 97 L 91 102 Q 88 101 89 104 L 97 98 L 96 97 Z M 77 173 L 75 174 L 71 180 L 71 184 L 129 242 L 144 259 L 152 265 L 159 266 L 163 261 L 163 256 L 160 247 L 149 195 L 149 190 L 146 186 L 143 183 L 129 180 L 101 177 L 85 173 L 77 173 Z " /><path fill="rgb(97,94,108)" stroke="rgb(97,94,108)" stroke-width="1" opacity="0.9882352941176471" d="M 497.5 47 Q 499.8 46.3 499 48.5 L 494 60.5 L 483.5 72 L 480.5 74 L 463 89.5 L 456 98.5 L 421.5 133 L 388.5 165 L 381.5 166 Q 376.5 164.5 378 156.5 L 383.5 150 L 407.5 127 L 409 127 L 409 125 L 411 125 Q 409.9 122.3 412.5 123 L 442.5 93 L 444 93 L 444 91 L 446 91 Q 444.9 88.3 447.5 89 L 479.5 57 L 481 57 Q 479.9 54.3 482.5 55 L 497.5 47 Z M 385 155 L 382 156 L 381 162 L 384 163 L 387 162 L 389 158 Q 388 155 385 155 Z " /><path fill="rgb(97,94,108)" stroke="rgb(97,94,108)" stroke-width="1" opacity="0.9882352941176471" d="M 284.5 224 L 298.5 239 L 284.5 224 Z " /><path fill="rgb(97,94,108)" stroke="rgb(97,94,108)" stroke-width="1" opacity="0.9882352941176471" d="M 308.5 250 L 310.5 253 L 308.5 250 Z " /><path fill="rgb(97,94,108)" stroke="rgb(97,94,108)" stroke-width="1" opacity="0.9882352941176471" d="M 314.5 254 L 318.5 259 L 314.5 254 Z " /><path fill="rgb(97,94,108)" stroke="rgb(97,94,108)" stroke-width="1" opacity="0.9882352941176471" d="M 243.5 278 L 272.5 308 L 243.5 278 Z " /><path fill="rgb(74,36,37)" stroke="rgb(74,36,37)" stroke-width="1" opacity="0.996078431372549" d="M 505.5 47 L 506 51.5 L 505 51.5 L 505.5 47 Z " /><path fill="rgb(74,36,37)" stroke="rgb(74,36,37)" stroke-width="1" opacity="0.996078431372549" d="M 503.5 56 L 499.5 61 L 503.5 56 Z " /><path fill="rgb(74,36,37)" stroke="rgb(74,36,37)" stroke-width="1" opacity="0.996078431372549" d="M 494.5 66 L 493.5 68 L 494.5 66 Z " /><path fill="rgb(74,36,37)" stroke="rgb(74,36,37)" stroke-width="1" opacity="0.996078431372549" d="M 489.5 68 L 485.5 73 L 489.5 68 Z " /><path fill="rgb(74,36,37)" stroke="rgb(74,36,37)" stroke-width="1" opacity="0.996078431372549" d="M 476.5 80 L 468.5 89 L 470 86.5 L 471.5 84 L 476.5 80 Z " /><path fill="rgb(74,36,37)" stroke="rgb(74,36,37)" stroke-width="1" opacity="0.996078431372549" d="M 464.5 92 L 458.5 99 L 464.5 92 Z " /><path fill="rgb(74,36,37)" stroke="rgb(74,36,37)" stroke-width="1" opacity="0.996078431372549" d="M 360.5 146 L 372.5 155 L 376 156 Q 374 164.8 379.5 167 L 385.5 168 L 389.5 166 L 391.5 169 L 402 176.5 L 320.5 259 L 309 250.5 L 306 245.5 L 285 223.5 L 360.5 146 Z " /><path fill="rgb(74,36,37)" stroke="rgb(74,36,37)" stroke-width="1" opacity="0.996078431372549" d="M 236.5 274 L 244.5 280 L 272 307.5 L 188 392.5 L 188 394 Q 185.3 392.9 186 395.5 L 179 401.5 L 166.5 415 L 125 421 L 125 388.5 L 134.5 378 Q 136.8 378.8 136 376.5 L 163.5 348 L 166.5 346 L 236.5 274 Z " /><path fill="rgb(41,22,23)" stroke="rgb(41,22,23)" stroke-width="1" opacity="0.984313725490196" d="M 505.5 52 L 506 55.5 L 505 58 Q 502.3 56.9 503 59.5 L 500 61 L 498.5 64 L 497 63.5 L 499 63 L 504 56.5 L 505.5 52 Z " /><path fill="rgb(41,22,23)" stroke="rgb(41,22,23)" stroke-width="1" opacity="0.984313725490196" d="M 487.5 76 L 488 77.5 L 485.5 81 L 486 79.5 L 487.5 76 Z " /><path fill="rgb(41,22,23)" stroke="rgb(41,22,23)" stroke-width="1" opacity="0.984313725490196" d="M 180.5 331 L 179.5 333 L 180.5 331 Z " /><path fill="rgb(41,22,23)" stroke="rgb(41,22,23)" stroke-width="1" opacity="0.984313725490196" d="M 198.5 382 L 193.5 388 L 198.5 382 Z " /><path fill="rgb(41,22,23)" stroke="rgb(41,22,23)" stroke-width="1" opacity="0.984313725490196" d="M 124.5 389 L 125 421 L 164 416 L 153.5 429 L 147 434.5 L 142.5 440 L 137 444.5 L 131.5 451 L 127 454.5 L 92.5 490 L 77.5 503 L 65.5 496 L 45 475.5 L 124.5 389 Z " /><path fill="rgb(41,22,23)" stroke="rgb(41,22,23)" stroke-width="1" opacity="0.984313725490196" d="M 190.5 390 L 188.5 393 L 190.5 390 Z " /><path fill="rgb(41,22,23)" stroke="rgb(41,22,23)" stroke-width="1" opacity="0.984313725490196" d="M 181.5 399 L 179.5 402 L 181.5 399 Z " /><path fill="rgb(174,174,201)" stroke="rgb(174,174,201)" stroke-width="1" opacity="0.34901960784313724" d="M 495.5 35 L 499.5 36 L 501 35.5 L 501 42.5 L 503 49.5 L 496.5 60 L 496 58.5 L 500 49.5 L 500 46 L 497.5 46 L 476.5 57 L 474.5 56 L 469 58.5 L 469.5 60 L 468 57 L 471 55.5 L 473 52.5 L 476 48 L 483 44 Q 481.9 41.3 484.5 42 L 489 38.5 Q 488.2 35.9 491.5 37 L 495.5 35 Z " /><path fill="rgb(174,174,201)" stroke="rgb(174,174,201)" stroke-width="1" opacity="0.34901960784313724" d="M 244.5 53 L 245.5 55 L 244.5 53 Z " /><path fill="rgb(174,174,201)" stroke="rgb(174,174,201)" stroke-width="1" opacity="0.34901960784313724" d="M 466.5 59 Q 469.5 60.5 466.5 62 L 464 60.5 L 465.5 61 L 467 60.5 L 466.5 59 Z " /><path fill="rgb(174,174,201)" stroke="rgb(174,174,201)" stroke-width="1" opacity="0.34901960784313724" d="M 257.5 66 L 259.5 69 L 257.5 66 Z " /><path fill="rgb(174,174,201)" stroke="rgb(174,174,201)" stroke-width="1" opacity="0.34901960784313724" d="M 266.5 74 L 267.5 76 L 266.5 74 Z " /><path fill="rgb(174,174,201)" stroke="rgb(174,174,201)" stroke-width="1" opacity="0.34901960784313724" d="M 288.5 95 L 289.5 97 L 288.5 95 Z " /><path fill="rgb(174,174,201)" stroke="rgb(174,174,201)" stroke-width="1" opacity="0.34901960784313724" d="M 73.5 117 L 72.5 119 L 73.5 117 Z " /><path fill="rgb(174,174,201)" stroke="rgb(174,174,201)" stroke-width="1" opacity="0.34901960784313724" d="M 67.5 124 L 66.5 126 L 67.5 124 Z " /><path fill="rgb(174,174,201)" stroke="rgb(174,174,201)" stroke-width="1" opacity="0.34901960784313724" d="M 354.5 147 L 353.5 149 L 354.5 147 Z " /><path fill="rgb(174,174,201)" stroke="rgb(174,174,201)" stroke-width="1" opacity="0.34901960784313724" d="M 41.5 154 L 38.5 158 L 41.5 154 Z " /><path fill="rgb(174,174,201)" stroke="rgb(174,174,201)" stroke-width="1" opacity="0.34901960784313724" d="M 296.5 165 L 295 167.5 L 294.5 169 L 294 167.5 L 296.5 165 Z " /><path fill="rgb(174,174,201)" stroke="rgb(174,174,201)" stroke-width="1" opacity="0.34901960784313724" d="M 21.5 189 L 23.5 192 L 21.5 189 Z " /><path fill="rgb(174,174,201)" stroke="rgb(174,174,201)" stroke-width="1" opacity="0.34901960784313724" d="M 32.5 201 L 37.5 207 L 32.5 201 Z " /><path fill="rgb(174,174,201)" stroke="rgb(174,174,201)" stroke-width="1" opacity="0.34901960784313724" d="M 268.5 206 L 284 222.5 L 268 207.5 L 268.5 206 Z " /><path fill="rgb(174,174,201)" stroke="rgb(174,174,201)" stroke-width="1" opacity="0.34901960784313724" d="M 296.5 208 L 293.5 212 L 296.5 208 Z " /><path fill="rgb(174,174,201)" stroke="rgb(174,174,201)" stroke-width="1" opacity="0.34901960784313724" d="M 62.5 233 L 63.5 235 L 62.5 233 Z " /><path fill="rgb(174,174,201)" stroke="rgb(174,174,201)" stroke-width="1" opacity="0.34901960784313724" d="M 71.5 243 L 72.5 245 L 71.5 243 Z " /><path fill="rgb(174,174,201)" stroke="rgb(174,174,201)" stroke-width="1" opacity="0.34901960784313724" d="M 81.5 253 L 82.5 255 L 81.5 253 Z " /><path fill="rgb(174,174,201)" stroke="rgb(174,174,201)" stroke-width="1" opacity="0.34901960784313724" d="M 85.5 257 L 88.5 261 L 85.5 257 Z " /><path fill="rgb(174,174,201)" stroke="rgb(174,174,201)" stroke-width="1" opacity="0.34901960784313724" d="M 221.5 258 L 236 271.5 L 235.5 273 L 231.5 268 L 226 263.5 L 223.5 260 L 221.5 258 Z " /><path fill="rgb(174,174,201)" stroke="rgb(174,174,201)" stroke-width="1" opacity="0.34901960784313724" d="M 320.5 262 Q 324.3 261.3 325 263.5 L 327 268 L 335 274.5 L 328.5 269 Q 324.8 270.3 326 266.5 Q 325.5 262.5 320.5 263 L 320.5 262 Z " /><path fill="rgb(174,174,201)" stroke="rgb(174,174,201)" stroke-width="1" opacity="0.34901960784313724" d="M 91.5 264 L 92.5 266 L 91.5 264 Z " /><path fill="rgb(174,174,201)" stroke="rgb(174,174,201)" stroke-width="1" opacity="0.34901960784313724" d="M 101.5 274 L 102.5 276 L 101.5 274 Z " /><path fill="rgb(174,174,201)" stroke="rgb(174,174,201)" stroke-width="1" opacity="0.34901960784313724" d="M 336.5 276 L 344.5 285 L 336.5 276 Z " /><path fill="rgb(174,174,201)" stroke="rgb(174,174,201)" stroke-width="1" opacity="0.34901960784313724" d="M 191.5 283 L 188.5 287 L 191.5 283 Z " /><path fill="rgb(174,174,201)" stroke="rgb(174,174,201)" stroke-width="1" opacity="0.34901960784313724" d="M 111.5 285 L 113.5 288 L 111.5 285 Z " /><path fill="rgb(174,174,201)" stroke="rgb(174,174,201)" stroke-width="1" opacity="0.34901960784313724" d="M 347.5 287 L 358.5 300 L 365 304.5 L 368 308.5 L 367.5 310 Q 373.3 311.3 376 315.5 L 385.5 328 L 387.5 328 L 399 338.5 L 397.5 339 L 389 331.5 L 387.5 329 Q 383.5 329.5 383 326.5 L 371.5 313 L 369.5 313 L 365 308.5 L 365 306.5 L 360.5 302 L 352 294.5 L 347.5 287 Z " /><path fill="rgb(174,174,201)" stroke="rgb(174,174,201)" stroke-width="1" opacity="0.34901960784313724" d="M 177.5 295 L 175.5 298 L 177.5 295 Z " /><path fill="rgb(174,174,201)" stroke="rgb(174,174,201)" stroke-width="1" opacity="0.34901960784313724" d="M 131.5 306 L 134.5 310 L 131.5 306 Z " /><path fill="rgb(174,174,201)" stroke="rgb(174,174,201)" stroke-width="1" opacity="0.34901960784313724" d="M 273.5 308 L 374 407.5 L 376 443.5 L 382.5 451 L 389.5 453 L 458.5 453 L 467 446.5 L 468.5 434 L 469 445.5 L 459.5 454 L 447.5 454 L 446.5 455 L 405.5 455 L 404.5 454 L 385.5 454 L 375 444.5 L 373 407.5 L 368.5 403 L 364 399.5 L 356.5 391 L 354 389.5 L 346.5 381 L 343 378.5 L 337.5 372 L 322 359 L 314.5 350 L 311 347.5 L 307.5 343 L 300 336.5 L 295.5 331 L 289 325.5 L 285.5 321 L 279 315.5 L 275.5 311 L 273 309.5 L 273.5 308 Z " /><path fill="rgb(174,174,201)" stroke="rgb(174,174,201)" stroke-width="1" opacity="0.34901960784313724" d="M 152.5 315 L 151.5 317 L 150 316.5 L 152.5 315 Z " /><path fill="rgb(174,174,201)" stroke="rgb(174,174,201)" stroke-width="1" opacity="0.34901960784313724" d="M 266.5 316 L 265.5 318 L 266.5 316 Z " /><path fill="rgb(174,174,201)" stroke="rgb(174,174,201)" stroke-width="1" opacity="0.34901960784313724" d="M 245.5 337 L 244.5 339 L 245.5 337 Z " /><path fill="rgb(174,174,201)" stroke="rgb(174,174,201)" stroke-width="1" opacity="0.34901960784313724" d="M 398.5 340 L 406 346.5 L 412.5 354 L 417 357.5 L 416.5 359 L 399.5 341 L 398.5 340 Z " /><path fill="rgb(174,174,201)" stroke="rgb(174,174,201)" stroke-width="1" opacity="0.34901960784313724" d="M 169.5 341 L 168.5 343 L 169.5 341 Z " /><path fill="rgb(174,174,201)" stroke="rgb(174,174,201)" stroke-width="1" opacity="0.34901960784313724" d="M 424.5 359 L 456 359.5 L 424.5 360 L 424.5 359 Z " /><path fill="rgb(174,174,201)" stroke="rgb(174,174,201)" stroke-width="1" opacity="0.34901960784313724" d="M 460.5 361 L 468 367.5 L 469 371.5 L 468 371.5 L 463.5 364 L 460.5 361 Z " /><path fill="rgb(174,174,201)" stroke="rgb(174,174,201)" stroke-width="1" opacity="0.34901960784313724" d="M 469.5 375 L 470 417.5 L 469 417.5 L 469.5 375 Z " /><path fill="rgb(174,174,201)" stroke="rgb(174,174,201)" stroke-width="1" opacity="0.34901960784313724" d="M 104.5 408 L 103.5 410 L 104.5 408 Z " /><path fill="rgb(174,174,201)" stroke="rgb(174,174,201)" stroke-width="1" opacity="0.34901960784313724" d="M 44.5 471 L 43.5 473 L 44.5 471 Z " /><path fill="rgb(174,174,201)" stroke="rgb(174,174,201)" stroke-width="1" opacity="0.34901960784313724" d="M 42.5 475 L 40.5 478 L 42.5 475 Z " /><path fill="rgb(174,174,201)" stroke="rgb(174,174,201)" stroke-width="1" opacity="0.34901960784313724" d="M 45.5 485 L 46.5 487 L 45.5 485 Z " /><path fill="rgb(174,174,201)" stroke="rgb(174,174,201)" stroke-width="1" opacity="0.34901960784313724" d="M 90.5 493 L 89.5 495 L 90.5 493 Z " /><path fill="rgb(174,174,201)" stroke="rgb(174,174,201)" stroke-width="1" opacity="0.34901960784313724" d="M 61.5 496 L 62.5 498 L 61.5 496 Z " /><path fill="rgb(144,144,181)" stroke="rgb(144,144,181)" stroke-width="1" opacity="0.9647058823529412" d="M 498.5 51 L 499 52.5 L 497.5 55 L 497 53.5 L 498.5 51 Z " /><path fill="rgb(144,144,181)" stroke="rgb(144,144,181)" stroke-width="1" opacity="0.9647058823529412" d="M 384.5 155 Q 388.5 154.5 389 157.5 L 386.5 162 L 383.5 163 L 381 162 L 382 156 L 384.5 155 Z " /><path fill="rgb(144,144,181)" stroke="rgb(144,144,181)" stroke-width="1" opacity="0.9647058823529412" d="M 266.5 207 L 284 223.5 L 310.5 253 L 312.5 253 L 319 259.5 L 320.5 263 Q 325.5 262.5 326 266.5 Q 324.8 270.3 328.5 269 L 359.5 302 L 365 306.5 L 365 308.5 L 369.5 313 L 371.5 313 L 380 321.5 L 385.5 329 L 389 330.5 L 392.5 335 L 398 339.5 Q 397.3 341.8 399.5 341 L 416.5 359 Q 422.8 357.3 424.5 360 L 457.5 360 L 465 365.5 L 469 372.5 L 469 433.5 L 468 434.5 L 468 444.5 L 462.5 451 L 458.5 453 L 389.5 453 L 382.5 451 L 377 445.5 L 375 435.5 L 375 414.5 Q 372.5 413 374 407.5 L 326.5 360 L 238 273.5 Q 238.8 271.3 236.5 272 L 223.5 259 L 222 259 L 222 255.5 L 228.5 248 L 246 232.5 L 263.5 209 L 266.5 207 Z " /></svg>